<?xml version="1.0" standalone="no"?>
<!DOCTYPE svg PUBLIC "-//W3C//DTD SVG 1.0//EN" "http://www.w3.org/TR/2001/REC-SVG-20010904/DTD/svg10.dtd"> 
<svg xmlns="http://www.w3.org/2000/svg" aria-hidden="true" width="16" height="18" viewBox="0 0 16 16">
    <path fill="#8b949e" fill-rule="evenodd" d="M7.775,5.42375850599289 A0.75,0.75 0 0 0 8.835,6.483758505992892 L10.085,5.233758505992889 A2,2 0 1 1 12.915,8.06375850599289 L10.415,10.56375850599289 A2,2 0 0 1 7.585,10.56375850599289 A0.75,0.75 0 0 0 6.525,11.623758505992889 A3.5,3.5 0 0 0 11.475,11.623758505992889 L13.975,9.123758505992889 A3.5,3.5 0 0 0 9.025,4.17375850599289 L7.775,5.42375850599289 zM3.085,15.06375850599289 A2,2 0 0 1 3.085,12.23375850599289 L5.585,9.73375850599289 A2,2 0 0 1 8.415,9.73375850599289 A0.75,0.75 0 0 0 9.475,8.67375850599289 A3.5,3.5 0 0 0 4.525,8.67375850599289 L2.025,11.17375850599289 A3.5,3.5 0 0 0 6.975,16.12375850599289 L8.225,14.873758505992889 A0.75,0.75 0 0 0 7.165,13.81375850599289 L5.915,15.06375850599289 A2,2 0 0 1 3.085,15.06375850599289 z"></path>
</svg>